<svg xmlns="http://www.w3.org/2000/svg" viewBox="0 0 220 97.71"><defs><style>.cls-1{fill:#0034ff;}</style></defs><g id="Layer_2" data-name="Layer 2"><g id="Layer_1-2" data-name="Layer 1"><path class="cls-1" d="M220,49.71c-1.19,1.31-2.29,2.72-3.58,3.92q-22.63,20.92-45.31,41.8c-.21.19-.43.38-.63.58-1.43,1.4-3,2.21-5,1.33s-2.54-2.55-2.53-4.56c0-5.37,0-10.74,0-16.11V74.14H6.6c-.79,0-1.58,0-2.36,0C1.47,73.88.08,72.48,0,69.69,0,65.75,0,61.81,0,57.87Q0,42.41,0,26.94c0-4.35,1.23-5.57,5.66-5.57H162.93V9.89c0-1.72,0-3.44,0-5.15,0-1.95.57-3.55,2.48-4.36a4.3,4.3,0,0,1,4.92,1.06q5.46,5,11,10,18,16.41,36,32.86a29.61,29.61,0,0,1,2.7,3.28Z"/></g></g></svg>