<svg xmlns="http://www.w3.org/2000/svg" viewBox="0 0 184.52 140"><defs><style>.cls-1{fill:#0034ff;}</style></defs><g id="Layer_2" data-name="Layer 2"><g id="Layer_1-2" data-name="Layer 1"><path class="cls-1" d="M184.52,134.13c-1.52,4.48-4.75,5.94-9.32,5.87-11.11-.17-22.22-.05-33.33-.06-5.9,0-8.61-2.69-8.62-8.55q0-17,0-34.06c0-6,2.73-8.62,8.73-8.63l12.8,0a2.45,2.45,0,0,0,.42-.16V73.43H96V88.7h2c4.26,0,8.53-.06,12.79,0a7,7,0,0,1,7.1,6.93q.14,18.64,0,37.29a6.86,6.86,0,0,1-6.89,6.92q-18.65.12-37.3,0A6.85,6.85,0,0,1,66.7,133q-.14-18.65,0-37.29c0-4,3.12-6.9,7.24-7s8.41,0,12.61,0h2V73.49H29.32V88.7c4.5,0,8.93,0,13.35,0a13.77,13.77,0,0,1,3.21.32,6.9,6.9,0,0,1,5.33,6.46q.06.81.06,1.62,0,17.2,0,34.42c0,5.65-2.77,8.4-8.4,8.41H8.46c-5.69,0-8.45-2.81-8.46-8.56V97.14c0-5.59,2.83-8.42,8.41-8.44,3.9,0,7.81,0,11.71,0,.58,0,1.17,0,1.94-.09V78.82c0-2.64,0-5.28,0-7.92,0-3.5,1.14-4.63,4.65-4.63H88.58v-15H86.89c-4.14,0-8.28,0-12.43,0-4.81,0-7.79-3-7.81-7.73q0-17.93,0-35.86C66.67,3,69.6.06,74.19,0Q92.3,0,110.4,0c4.49,0,7.44,3,7.46,7.51q.08,17.92,0,35.86c0,4.47-3,7.42-7.51,7.48-4.74.06-9.48,0-14.36,0V66.27H157.7c3.65,0,4.75,1.1,4.76,4.7,0,5.17,0,10.33,0,15.5V88.7h2.92c3.12,0,6.25.17,9.36,0,4.69-.31,8,1.34,9.78,5.83ZM44.07,132.74V96.1H7.3v36.64ZM177.29,96H140.45v36.19h36.84Zm-103.42.1v36.62h36.75V96.09Zm36.78-51.94V7.25H73.89V43.46Z"/></g></g></svg>