<svg xmlns="http://www.w3.org/2000/svg" viewBox="0 0 30 30"><defs><style>.cls-1{fill:#0034ff;}.cls-2{fill:#fff;}</style></defs><g id="Layer_2" data-name="Layer 2"><g id="Layer_1-2" data-name="Layer 1"><path class="cls-1" d="M30,0,0,30V8A8,8,0,0,1,8,0Z"/><path class="cls-2" d="M16.42,6.11A.84.84,0,0,0,15.24,6l-7.69,6.6-2-4.07a.84.84,0,1,0-1.51.73l2.43,5.06v0l0,.06a.22.22,0,0,0,.05.08l0,0,0,0,0,0,.07.05,0,0,.12.06h0l.12,0h.31l.13,0h0a.29.29,0,0,0,.13,0h0l.06,0,.09-.06,0,0L16.33,7.3A.83.83,0,0,0,16.42,6.11Z"/></g></g></svg>