<svg xmlns="http://www.w3.org/2000/svg" viewBox="0 0 142.32 140"><defs><style>.cls-1{fill:#0034ff;}</style></defs><g id="Layer_2" data-name="Layer 2"><g id="Layer_1-2" data-name="Layer 1"><path class="cls-1" d="M142.32,115.05a10.09,10.09,0,0,1-4.33,6.36,9.62,9.62,0,0,1-8.67.73c-7.29-2.55-14.61-5-21.9-7.56a3.55,3.55,0,0,0-2.89.14,57.6,57.6,0,0,1-22.11,5.35,2.72,2.72,0,0,0-2.18,1.18Q64.76,140.2,40.4,137.81A42.75,42.75,0,0,1,28,134.43a3.39,3.39,0,0,0-2.2-.07c-5.14,1.7-10.23,3.55-15.37,5.22A7.77,7.77,0,0,1,0,131.91a11.4,11.4,0,0,1,.67-3c1.58-4.69,3.17-9.37,4.85-14a4.6,4.6,0,0,0-.12-3.55C.12,98.3.71,85.52,7.42,73.09a41.35,41.35,0,0,1,11.07-13,2.29,2.29,0,0,0,1-2c.63-27.24,20.69-51.25,47.4-56.77,29.8-6.16,59,9.94,69.24,38.52,5.43,15.08,4.7,30.1-1.74,44.79a4.74,4.74,0,0,0-.19,3.8c2.72,7.77,5.33,15.58,8,23.37,0,.08.11.13.17.2ZM78.73,8.46c-1.19.08-3.32.17-5.43.4a49,49,0,0,0-22.44,8.27A51.56,51.56,0,0,0,29.24,71.72a50.47,50.47,0,0,0,13,23.87A50.93,50.93,0,0,0,74.1,111.41a49.79,49.79,0,0,0,28.54-5.2,6.67,6.67,0,0,1,5.59-.32c7.11,2.51,14.25,4.94,21.37,7.39,1,.34,2,.7,3,1,.86.25,1.25-.17,1.1-1a8,8,0,0,0-.4-1.32c-2.71-7.87-5.4-15.74-8.14-23.6a5.63,5.63,0,0,1,.27-4.68A51.4,51.4,0,0,0,124.57,35,51.74,51.74,0,0,0,78.73,8.46ZM8.89,131.12c.63-.2,1.06-.31,1.48-.46,4.59-1.57,9.21-3.06,13.75-4.76a7.76,7.76,0,0,1,6.51.31c10.43,4.84,20.86,4.64,31.17-.42a30.1,30.1,0,0,0,8.42-6.08C43,113.76,26.29,97.3,20,69.94c-.2.31-.34.55-.51.77-1,1.27-2.08,2.49-3,3.83a34.7,34.7,0,0,0-5.7,25A33.13,33.13,0,0,0,14.09,110a5.85,5.85,0,0,1,.28,5.19c-.59,1.41-1,2.88-1.52,4.32C11.55,123.34,10.25,127.13,8.89,131.12Z"/><path class="cls-1" d="M79.65,55h24.58c2.86,0,4.77,1.78,4.74,4.31a4.11,4.11,0,0,1-3.34,4,9.61,9.61,0,0,1-1.93.16H55.37a10.22,10.22,0,0,1-2.07-.18A4.18,4.18,0,0,1,53,55.29,8.46,8.46,0,0,1,55.2,55Q67.43,55,79.65,55Z"/><path class="cls-1" d="M79.49,46.1q-12.42,0-24.86,0c-3.23,0-5.29-2.67-4.34-5.54a3.93,3.93,0,0,1,3.29-2.82,11.42,11.42,0,0,1,1.94-.11h48a13.25,13.25,0,0,1,1.67.08A4.13,4.13,0,0,1,109,42a4.19,4.19,0,0,1-3.92,4.11c-1.15.08-2.32,0-3.47,0Z"/><path class="cls-1" d="M69.9,72.49c5.14,0,10.28,0,15.42,0a4.19,4.19,0,0,1,1.43,8.14A5.49,5.49,0,0,1,85,80.9q-15.21,0-30.42,0a4.2,4.2,0,0,1-4.51-4.23,4.25,4.25,0,0,1,4.57-4.19c5.1,0,10.19,0,15.28,0Z"/></g></g></svg>