<svg xmlns="http://www.w3.org/2000/svg" viewBox="0 0 159.38 140"><defs><style>.cls-1{fill:#0034ff;}</style></defs><g id="Layer_2" data-name="Layer 2"><g id="Layer_1-2" data-name="Layer 1"><path class="cls-1" d="M159.38,78.69c-.44,2.54-.78,5.1-1.35,7.61a51.44,51.44,0,0,1-7.87,18,2.46,2.46,0,0,0-.34,2.42c2.85,8.82,5.63,17.66,8.49,26.48.7,2.17.6,4.12-1.19,5.68s-3.83,1.36-5.92.29c-8.43-4.33-16.9-8.58-25.33-12.93a3.56,3.56,0,0,0-3.18-.16c-20.67,7.7-40.49,6-59.2-5.82-3.43-2.17-6.35-5.15-9.55-7.69a5.43,5.43,0,0,0-2.41-1.14,63.76,63.76,0,0,1-14.81-4,3.55,3.55,0,0,0-3.32.18Q20.76,114.09,8,120.45a6.75,6.75,0,0,1-3.69.72c-3-.44-4.35-3.31-3.34-6.48q4.22-13.34,8.5-26.64a2.44,2.44,0,0,0-.29-2.42,52.66,52.66,0,0,1,7-67.83A61.15,61.15,0,0,1,55.41.21c19.4-1.43,36.25,4.48,50.29,18.11a4,4,0,0,0,2,.89c20.11,3.2,35.68,13.09,45.62,31.13a48.9,48.9,0,0,1,5.76,19.23,6.1,6.1,0,0,0,.26,1ZM146.13,126c-.19-.7-.29-1.14-.43-1.57-1.81-5.72-3.54-11.48-5.49-17.15a6.68,6.68,0,0,1,1.14-6.78,42.9,42.9,0,0,0-.4-52.33c-9.52-12.3-22.32-18.79-37.7-20C87,26.91,72.64,31.6,60.93,43.1,50.15,53.69,45.46,66.66,48,81.73c2.38,14.3,10.51,24.91,22.89,32.06,16.2,9.35,33.13,10,50.32,2.76a7.15,7.15,0,0,1,6.77.23c4,2.2,8.2,4.21,12.31,6.3ZM44.66,100.45c-.44-.91-.67-1.41-.91-1.89-6.93-14-8-28.43-2.14-42.9,7.82-19.43,22.84-30.6,42.87-35.48,2.31-.57,4.69-.88,7.31-1.35-.89-.59-1.52-1-2.18-1.44A53.55,53.55,0,0,0,65.48,9.5C50.83,8.36,37.61,12.11,26.19,21.44,7.09,37,3.86,62.69,18.43,82.46a5.65,5.65,0,0,1,.9,5.53c-2,6-3.84,12-5.75,18.06-.11.35-.16.73-.28,1.31,6.27-3.19,12.34-6.2,18.33-9.37a6.56,6.56,0,0,1,6.49-.13C40.1,98.83,42.22,99.5,44.66,100.45Z"/><path class="cls-1" d="M79.74,79.3a4.66,4.66,0,1,1,4.61-4.68A4.7,4.7,0,0,1,79.74,79.3Z"/><path class="cls-1" d="M121.7,74.61A4.66,4.66,0,1,1,117,70,4.72,4.72,0,0,1,121.7,74.61Z"/><path class="cls-1" d="M98.36,70A4.66,4.66,0,1,1,93.7,74.6,4.71,4.71,0,0,1,98.36,70Z"/></g></g></svg>