<svg xmlns="http://www.w3.org/2000/svg" viewBox="0 0 136.36 140"><defs><style>.cls-1{fill:#0034ff;}</style></defs><g id="Layer_2" data-name="Layer 2"><g id="Layer_1-2" data-name="Layer 1"><path class="cls-1" d="M48.5,0c.54.05,1.09.14,1.63.14q38.28.1,76.56.18c1.5,0,3-.1,4.5,0a2.56,2.56,0,0,1,2.66,2.42,150.37,150.37,0,0,1,2.49,31.55c0,2.73-.46,3.28-2.63,3.7-2.4.47-4-.29-4.87-2.44-1.53-3.65-2.91-7.36-4.57-10.95-3-6.56-8.34-10.39-15.28-12.1a78.63,78.63,0,0,0-27.25-1.87,12.76,12.76,0,0,0-2,.5A1.94,1.94,0,0,0,78.24,13c0,.64-.11,1.27-.11,1.91q0,51.06,0,102.13c0,1.49.14,3,.29,4.49.48,4.85,3.84,7.34,7.89,8.88,3.85,1.47,7.89,2.43,11.86,3.57,2.07.6,2.57,1,2.56,2.6A3.3,3.3,0,0,1,98,139.85a8.65,8.65,0,0,1-1.9.15l-54.69,0a3,3,0,0,1-3.16-2.37,3.32,3.32,0,0,1,1.88-3.47c1.82-.83,3.67-1.58,5.52-2.34,2.15-.88,4.28-1.81,6.45-2.6,4.38-1.58,6.38-4.93,7-9.27a38.6,38.6,0,0,0,.37-5.59q0-49.76,0-99.52c0-3.12-1.11-4.38-4.17-4.51a91.56,91.56,0,0,0-22,1.4c-9.66,1.92-17,6.94-21.56,15.77-1.56,3-3,6.13-4.46,9.2C5.66,40,3.39,39.32.83,37.77c-1.11-.68-.87-1.93-.62-3s.68-2.36,1-3.56A101.39,101.39,0,0,0,3.66,10.09Q3.74,7,3.84,3.94c.07-2.2.67-3,2.77-3.61.3-.09.58-.22.87-.33Z"/></g></g></svg>